<svg width="64" height="100" viewBox="0 0 64 100" fill="none" xmlns="http://www.w3.org/2000/svg">
<path d="M45.6245 2.51954C45.6346 3.92047 44.6209 5.0648 43.3639 5.07427C42.1068 5.0846 41.08 3.95577 41.0715 2.55571C41.0615 1.15392 42.0752 0.00959012 43.3322 0.000118602C44.5892 -0.011075 45.616 1.11862 45.6245 2.51954Z" fill="white"/>
<path d="M4.55382 50.0161C4.56232 51.417 3.5502 52.5622 2.29317 52.5717C1.03613 52.582 0.00933446 51.4532 6.31429e-05 50.0523C-0.00920817 48.6514 1.00368 47.5062 2.26072 47.4967C3.51853 47.4872 4.54533 48.6152 4.55382 50.0161Z" fill="white"/>
<path d="M13.8817 38.8897C16.1624 38.9077 18.0236 36.8627 18.0383 34.3209C18.0561 31.7817 16.2196 29.7066 13.9396 29.6885C11.6604 29.6704 9.79998 31.7154 9.78299 34.2572C9.76831 36.7982 11.6025 38.8716 13.8817 38.8897Z" fill="white"/>
<path d="M33.3874 16.6974C33.4044 19.2375 31.5686 21.3118 29.2894 21.3298C27.0095 21.3479 25.149 19.3029 25.1313 16.762C25.1158 14.221 26.95 12.1468 29.2307 12.1295C31.5107 12.1115 33.3711 14.1556 33.3874 16.6974Z" fill="white"/>
<path d="M54.0657 16.9014C54.1507 19.4406 56.066 21.4219 58.3444 21.3289C60.622 21.2342 62.4014 19.0988 62.3164 16.5587C62.2314 14.0195 60.3153 12.0382 58.0377 12.1329C55.7585 12.2276 53.9807 14.3613 54.0657 16.9014Z" fill="white"/>
<path d="M45.6245 97.4788C45.6346 96.0779 44.6209 94.9344 43.3639 94.9241C42.1068 94.9137 41.08 96.0426 41.0715 97.4444C41.0615 98.8444 42.0752 99.9887 43.3322 99.9999C44.5892 100.009 45.616 98.8797 45.6245 97.4788Z" fill="white"/>
<path d="M13.8817 61.1114C16.1624 61.0924 18.0236 63.1383 18.0383 65.6783C18.0561 68.2193 16.2196 70.2936 13.9396 70.3125C11.6604 70.3306 9.79998 68.2856 9.78299 65.7438C9.76831 63.2028 11.6025 61.1294 13.8817 61.1114Z" fill="white"/>
<path d="M33.3874 83.3012C33.4044 80.7594 31.5686 78.6868 29.2894 78.667C27.0095 78.6489 25.149 80.6956 25.1313 83.2349C25.1158 85.7767 26.95 87.8501 29.2307 87.8682C31.5107 87.8871 33.3711 85.843 33.3874 83.3012Z" fill="white"/>
<path d="M54.0657 83.0965C54.1507 80.5565 56.066 78.5752 58.3444 78.6682C60.622 78.7646 62.4014 80.8983 62.3164 83.4384C62.2314 85.9785 60.3153 87.9597 58.0377 87.865C55.7585 87.7695 53.9807 85.6358 54.0657 83.0965Z" fill="white"/>
<path d="M44.5531 66.2689C36.4832 66.2689 29.9423 58.9878 29.9238 49.9994C29.9423 41.0118 36.4832 33.7316 44.5531 33.7316C47.7633 33.7316 50.7332 34.8863 53.1453 36.8417C54.679 38.0859 56.8098 37.8448 58.1518 36.3483L62.9652 30.9849C63.9881 29.844 63.9364 27.9781 62.8501 26.9104L62.8439 26.9052C61.4401 25.5232 59.4336 25.147 57.7315 26.0201C57.1358 26.3275 56.4706 26.4962 55.7706 26.4902C53.2141 26.4695 51.271 23.9096 51.1736 20.2442C51.0407 15.1821 48.0291 11.6922 43.7774 11.725C40.1153 11.7542 36.2213 13.9878 36.0351 22.5905C35.981 25.1168 34.3099 27.3616 32.0654 27.7215C30.4182 27.985 28.9611 27.2436 27.9837 26.0166C27.8879 25.8909 27.7914 25.7643 27.6832 25.6507C27.6793 25.6455 27.6747 25.6421 27.6708 25.6369L27.6693 25.6386C26.7422 24.6656 25.4241 24.1482 23.9894 24.4762C22.4565 24.8258 21.1933 26.1871 20.8348 27.8834C20.4446 29.7432 21.082 31.4447 22.2201 32.4995C23.4215 33.9443 23.9646 36.0745 23.0831 38.3675C22.3406 40.3031 20.5389 41.4698 18.6522 41.4552C18.3833 41.4535 19.0532 41.4595 18.3485 41.4535C14.0945 41.4165 10.753 45.2619 10.9299 49.9994C10.753 54.7377 14.0961 58.5832 18.3501 58.5461C19.0531 58.5401 18.3841 58.5461 18.6522 58.5444C20.5389 58.5298 22.3406 59.6965 23.0831 61.6313C23.9646 63.9251 23.4215 66.0545 22.2201 67.4984C21.082 68.5549 20.4446 70.2555 20.8348 72.1162C21.1933 73.8134 22.4565 75.1738 23.9894 75.5234C25.4241 75.8515 26.7422 75.334 27.6693 74.361L27.6708 74.3627C27.6747 74.3584 27.6793 74.3541 27.6832 74.3489C27.7914 74.2344 27.8879 74.1096 27.9837 73.9821C28.9611 72.7569 30.4182 72.0146 32.0654 72.279C34.3099 72.6372 35.981 74.8828 36.0351 77.4091C36.2213 86.0127 40.1153 88.2454 43.7774 88.2729C48.0291 88.3082 51.0407 84.8184 51.1736 79.7554C51.271 76.09 53.2141 73.5301 55.7706 73.5094C56.4706 73.5034 57.1358 73.6739 57.7315 73.9787C59.4336 74.8535 61.4401 74.4746 62.8439 73.0961L62.8501 73.0892C63.9364 72.0198 63.9881 70.1556 62.9652 69.0147L58.1518 63.6504C56.8098 62.1548 54.679 61.9137 53.1453 63.157C50.7332 65.1133 47.7633 66.2689 44.5531 66.2689Z" fill="white"/>
</svg>
